<mxfile host="app.diagrams.net" modified="2023-02-18T12:13:41.607Z" agent="5.0 (Windows NT 10.0; Win64; x64) AppleWebKit/537.36 (KHTML, like Gecko) Chrome/110.0.0.0 Safari/537.36 Edg/110.0.1587.41" etag="vjkksNIyBJsjEKsc6x_g" version="20.8.20" type="github">
  <diagram name="第 1 页" id="mBNEx97Tj01VkI3aPntV">
    <mxGraphModel dx="2027" dy="1156" grid="1" gridSize="10" guides="1" tooltips="1" connect="1" arrows="1" fold="1" page="1" pageScale="1" pageWidth="827" pageHeight="1169" math="0" shadow="0">
      <root>
        <mxCell id="0" />
        <mxCell id="1" parent="0" />
        <mxCell id="ymRMPZuHfA3HGeZkTAhT-1" value="面向对象进阶" style="swimlane;startSize=20;horizontal=1;containerType=tree;fontSize=20;fillColor=#d5e8d4;strokeColor=#82b366;" vertex="1" parent="1">
          <mxGeometry width="1430" height="2580" as="geometry" />
        </mxCell>
        <mxCell id="ymRMPZuHfA3HGeZkTAhT-2" value="" style="edgeStyle=entityRelationEdgeStyle;startArrow=none;endArrow=none;segment=10;curved=1;sourcePerimeterSpacing=0;targetPerimeterSpacing=0;rounded=0;" edge="1" parent="ymRMPZuHfA3HGeZkTAhT-1" source="ymRMPZuHfA3HGeZkTAhT-6" target="ymRMPZuHfA3HGeZkTAhT-7">
          <mxGeometry relative="1" as="geometry" />
        </mxCell>
        <mxCell id="ymRMPZuHfA3HGeZkTAhT-3" value="" style="edgeStyle=entityRelationEdgeStyle;startArrow=none;endArrow=none;segment=10;curved=1;sourcePerimeterSpacing=0;targetPerimeterSpacing=0;rounded=0;" edge="1" parent="ymRMPZuHfA3HGeZkTAhT-1" source="ymRMPZuHfA3HGeZkTAhT-6" target="ymRMPZuHfA3HGeZkTAhT-8">
          <mxGeometry relative="1" as="geometry" />
        </mxCell>
        <mxCell id="ymRMPZuHfA3HGeZkTAhT-4" value="" style="edgeStyle=entityRelationEdgeStyle;startArrow=none;endArrow=none;segment=10;curved=1;sourcePerimeterSpacing=0;targetPerimeterSpacing=0;rounded=0;" edge="1" parent="ymRMPZuHfA3HGeZkTAhT-1" source="ymRMPZuHfA3HGeZkTAhT-6" target="ymRMPZuHfA3HGeZkTAhT-9">
          <mxGeometry relative="1" as="geometry" />
        </mxCell>
        <mxCell id="ymRMPZuHfA3HGeZkTAhT-5" value="" style="edgeStyle=entityRelationEdgeStyle;startArrow=none;endArrow=none;segment=10;curved=1;sourcePerimeterSpacing=0;targetPerimeterSpacing=0;rounded=0;" edge="1" parent="ymRMPZuHfA3HGeZkTAhT-1" source="ymRMPZuHfA3HGeZkTAhT-6" target="ymRMPZuHfA3HGeZkTAhT-10">
          <mxGeometry relative="1" as="geometry" />
        </mxCell>
        <mxCell id="ymRMPZuHfA3HGeZkTAhT-6" value="面向对象进阶" style="ellipse;whiteSpace=wrap;html=1;align=center;treeFolding=1;treeMoving=1;newEdgeStyle={&quot;edgeStyle&quot;:&quot;entityRelationEdgeStyle&quot;,&quot;startArrow&quot;:&quot;none&quot;,&quot;endArrow&quot;:&quot;none&quot;,&quot;segment&quot;:10,&quot;curved&quot;:1,&quot;sourcePerimeterSpacing&quot;:0,&quot;targetPerimeterSpacing&quot;:0};fillColor=#e1d5e7;strokeColor=#9673a6;" vertex="1" parent="ymRMPZuHfA3HGeZkTAhT-1">
          <mxGeometry x="10" y="330" width="180" height="50" as="geometry" />
        </mxCell>
        <mxCell id="ymRMPZuHfA3HGeZkTAhT-7" value="static静态" style="whiteSpace=wrap;html=1;rounded=1;arcSize=50;align=center;verticalAlign=middle;strokeWidth=1;autosize=1;spacing=4;treeFolding=1;treeMoving=1;newEdgeStyle={&quot;edgeStyle&quot;:&quot;entityRelationEdgeStyle&quot;,&quot;startArrow&quot;:&quot;none&quot;,&quot;endArrow&quot;:&quot;none&quot;,&quot;segment&quot;:10,&quot;curved&quot;:1,&quot;sourcePerimeterSpacing&quot;:0,&quot;targetPerimeterSpacing&quot;:0};" vertex="1" parent="ymRMPZuHfA3HGeZkTAhT-1">
          <mxGeometry x="244" y="140" width="100" height="30" as="geometry" />
        </mxCell>
        <mxCell id="ymRMPZuHfA3HGeZkTAhT-8" value="Branch" style="whiteSpace=wrap;html=1;shape=partialRectangle;top=0;left=0;bottom=1;right=0;points=[[0,1],[1,1]];fillColor=none;align=center;verticalAlign=bottom;routingCenterY=0.5;snapToPoint=1;autosize=1;treeFolding=1;treeMoving=1;newEdgeStyle={&quot;edgeStyle&quot;:&quot;entityRelationEdgeStyle&quot;,&quot;startArrow&quot;:&quot;none&quot;,&quot;endArrow&quot;:&quot;none&quot;,&quot;segment&quot;:10,&quot;curved&quot;:1,&quot;sourcePerimeterSpacing&quot;:0,&quot;targetPerimeterSpacing&quot;:0};" vertex="1" parent="ymRMPZuHfA3HGeZkTAhT-1">
          <mxGeometry x="324" y="287" width="72" height="26" as="geometry" />
        </mxCell>
        <mxCell id="ymRMPZuHfA3HGeZkTAhT-9" value="Topic" style="whiteSpace=wrap;html=1;rounded=1;arcSize=50;align=center;verticalAlign=middle;strokeWidth=1;autosize=1;spacing=4;treeFolding=1;treeMoving=1;newEdgeStyle={&quot;edgeStyle&quot;:&quot;entityRelationEdgeStyle&quot;,&quot;startArrow&quot;:&quot;none&quot;,&quot;endArrow&quot;:&quot;none&quot;,&quot;segment&quot;:10,&quot;curved&quot;:1,&quot;sourcePerimeterSpacing&quot;:0,&quot;targetPerimeterSpacing&quot;:0};" vertex="1" collapsed="1" parent="ymRMPZuHfA3HGeZkTAhT-1">
          <mxGeometry x="324" y="340" width="80" height="50" as="geometry" />
        </mxCell>
        <mxCell id="ymRMPZuHfA3HGeZkTAhT-10" value="Branch" style="whiteSpace=wrap;html=1;shape=partialRectangle;top=0;left=0;bottom=1;right=0;points=[[0,1],[1,1]];fillColor=none;align=center;verticalAlign=bottom;routingCenterY=0.5;snapToPoint=1;autosize=1;treeFolding=1;treeMoving=1;newEdgeStyle={&quot;edgeStyle&quot;:&quot;entityRelationEdgeStyle&quot;,&quot;startArrow&quot;:&quot;none&quot;,&quot;endArrow&quot;:&quot;none&quot;,&quot;segment&quot;:10,&quot;curved&quot;:1,&quot;sourcePerimeterSpacing&quot;:0,&quot;targetPerimeterSpacing&quot;:0};" vertex="1" parent="ymRMPZuHfA3HGeZkTAhT-1">
          <mxGeometry x="230" y="670" width="72" height="26" as="geometry" />
        </mxCell>
        <mxCell id="ymRMPZuHfA3HGeZkTAhT-11" value="" style="edgeStyle=entityRelationEdgeStyle;startArrow=none;endArrow=none;segment=10;curved=1;sourcePerimeterSpacing=0;targetPerimeterSpacing=0;rounded=0;" edge="1" target="ymRMPZuHfA3HGeZkTAhT-12" source="ymRMPZuHfA3HGeZkTAhT-8" parent="ymRMPZuHfA3HGeZkTAhT-1">
          <mxGeometry relative="1" as="geometry">
            <mxPoint x="310" y="310" as="sourcePoint" />
          </mxGeometry>
        </mxCell>
        <mxCell id="ymRMPZuHfA3HGeZkTAhT-12" value="Branch" style="whiteSpace=wrap;html=1;shape=partialRectangle;top=0;left=0;bottom=1;right=0;points=[[0,1],[1,1]];fillColor=none;align=center;verticalAlign=bottom;routingCenterY=0.5;snapToPoint=1;autosize=1;treeFolding=1;treeMoving=1;newEdgeStyle={&quot;edgeStyle&quot;:&quot;entityRelationEdgeStyle&quot;,&quot;startArrow&quot;:&quot;none&quot;,&quot;endArrow&quot;:&quot;none&quot;,&quot;segment&quot;:10,&quot;curved&quot;:1,&quot;sourcePerimeterSpacing&quot;:0,&quot;targetPerimeterSpacing&quot;:0};" vertex="1" parent="ymRMPZuHfA3HGeZkTAhT-1">
          <mxGeometry x="436" y="287" width="72" height="26" as="geometry" />
        </mxCell>
        <mxCell id="ymRMPZuHfA3HGeZkTAhT-13" value="" style="edgeStyle=entityRelationEdgeStyle;startArrow=none;endArrow=none;segment=10;curved=1;sourcePerimeterSpacing=0;targetPerimeterSpacing=0;rounded=0;" edge="1" target="ymRMPZuHfA3HGeZkTAhT-14" source="ymRMPZuHfA3HGeZkTAhT-8" parent="ymRMPZuHfA3HGeZkTAhT-1">
          <mxGeometry relative="1" as="geometry">
            <mxPoint x="406" y="323" as="sourcePoint" />
          </mxGeometry>
        </mxCell>
        <mxCell id="ymRMPZuHfA3HGeZkTAhT-14" value="Branch" style="whiteSpace=wrap;html=1;shape=partialRectangle;top=0;left=0;bottom=1;right=0;points=[[0,1],[1,1]];fillColor=none;align=center;verticalAlign=bottom;routingCenterY=0.5;snapToPoint=1;autosize=1;treeFolding=1;treeMoving=1;newEdgeStyle={&quot;edgeStyle&quot;:&quot;entityRelationEdgeStyle&quot;,&quot;startArrow&quot;:&quot;none&quot;,&quot;endArrow&quot;:&quot;none&quot;,&quot;segment&quot;:10,&quot;curved&quot;:1,&quot;sourcePerimeterSpacing&quot;:0,&quot;targetPerimeterSpacing&quot;:0};" vertex="1" parent="ymRMPZuHfA3HGeZkTAhT-1">
          <mxGeometry x="436" y="251" width="72" height="26" as="geometry" />
        </mxCell>
        <mxCell id="ymRMPZuHfA3HGeZkTAhT-15" value="" style="edgeStyle=entityRelationEdgeStyle;startArrow=none;endArrow=none;segment=10;curved=1;sourcePerimeterSpacing=0;targetPerimeterSpacing=0;rounded=0;" edge="1" target="ymRMPZuHfA3HGeZkTAhT-16" source="ymRMPZuHfA3HGeZkTAhT-8" parent="ymRMPZuHfA3HGeZkTAhT-1">
          <mxGeometry relative="1" as="geometry">
            <mxPoint x="406" y="323" as="sourcePoint" />
          </mxGeometry>
        </mxCell>
        <mxCell id="ymRMPZuHfA3HGeZkTAhT-16" value="Branch" style="whiteSpace=wrap;html=1;shape=partialRectangle;top=0;left=0;bottom=1;right=0;points=[[0,1],[1,1]];fillColor=none;align=center;verticalAlign=bottom;routingCenterY=0.5;snapToPoint=1;autosize=1;treeFolding=1;treeMoving=1;newEdgeStyle={&quot;edgeStyle&quot;:&quot;entityRelationEdgeStyle&quot;,&quot;startArrow&quot;:&quot;none&quot;,&quot;endArrow&quot;:&quot;none&quot;,&quot;segment&quot;:10,&quot;curved&quot;:1,&quot;sourcePerimeterSpacing&quot;:0,&quot;targetPerimeterSpacing&quot;:0};" vertex="1" parent="ymRMPZuHfA3HGeZkTAhT-1">
          <mxGeometry x="436" y="323" width="72" height="26" as="geometry" />
        </mxCell>
        <mxCell id="ymRMPZuHfA3HGeZkTAhT-17" value="" style="edgeStyle=entityRelationEdgeStyle;startArrow=none;endArrow=none;segment=10;curved=1;sourcePerimeterSpacing=0;targetPerimeterSpacing=0;rounded=0;" edge="1" target="ymRMPZuHfA3HGeZkTAhT-18" source="ymRMPZuHfA3HGeZkTAhT-7" parent="ymRMPZuHfA3HGeZkTAhT-1">
          <mxGeometry relative="1" as="geometry">
            <mxPoint x="200" y="355" as="sourcePoint" />
          </mxGeometry>
        </mxCell>
        <mxCell id="ymRMPZuHfA3HGeZkTAhT-18" value="1、定义：java中的一个修饰符，可以修饰成员方法、成员变量" style="whiteSpace=wrap;html=1;rounded=1;arcSize=50;align=center;verticalAlign=middle;strokeWidth=1;autosize=1;spacing=4;treeFolding=1;treeMoving=1;newEdgeStyle={&quot;edgeStyle&quot;:&quot;entityRelationEdgeStyle&quot;,&quot;startArrow&quot;:&quot;none&quot;,&quot;endArrow&quot;:&quot;none&quot;,&quot;segment&quot;:10,&quot;curved&quot;:1,&quot;sourcePerimeterSpacing&quot;:0,&quot;targetPerimeterSpacing&quot;:0};" vertex="1" parent="ymRMPZuHfA3HGeZkTAhT-1">
          <mxGeometry x="396" y="40" width="370" height="30" as="geometry" />
        </mxCell>
        <mxCell id="ymRMPZuHfA3HGeZkTAhT-19" value="" style="edgeStyle=entityRelationEdgeStyle;startArrow=none;endArrow=none;segment=10;curved=1;sourcePerimeterSpacing=0;targetPerimeterSpacing=0;rounded=0;" edge="1" target="ymRMPZuHfA3HGeZkTAhT-20" source="ymRMPZuHfA3HGeZkTAhT-7" parent="ymRMPZuHfA3HGeZkTAhT-1">
          <mxGeometry relative="1" as="geometry">
            <mxPoint x="200" y="355" as="sourcePoint" />
          </mxGeometry>
        </mxCell>
        <mxCell id="ymRMPZuHfA3HGeZkTAhT-20" value="2、静态变量（被static修饰的就是成员变量）" style="whiteSpace=wrap;html=1;rounded=1;arcSize=50;align=center;verticalAlign=middle;strokeWidth=1;autosize=1;spacing=4;treeFolding=1;treeMoving=1;newEdgeStyle={&quot;edgeStyle&quot;:&quot;entityRelationEdgeStyle&quot;,&quot;startArrow&quot;:&quot;none&quot;,&quot;endArrow&quot;:&quot;none&quot;,&quot;segment&quot;:10,&quot;curved&quot;:1,&quot;sourcePerimeterSpacing&quot;:0,&quot;targetPerimeterSpacing&quot;:0};" vertex="1" parent="ymRMPZuHfA3HGeZkTAhT-1">
          <mxGeometry x="396" y="80" width="364" height="30" as="geometry" />
        </mxCell>
        <mxCell id="ymRMPZuHfA3HGeZkTAhT-24" value="" style="edgeStyle=entityRelationEdgeStyle;startArrow=none;endArrow=none;segment=10;curved=1;sourcePerimeterSpacing=0;targetPerimeterSpacing=0;rounded=0;" edge="1" target="ymRMPZuHfA3HGeZkTAhT-25" source="ymRMPZuHfA3HGeZkTAhT-20" parent="ymRMPZuHfA3HGeZkTAhT-1">
          <mxGeometry relative="1" as="geometry">
            <mxPoint x="368" y="155" as="sourcePoint" />
          </mxGeometry>
        </mxCell>
        <mxCell id="ymRMPZuHfA3HGeZkTAhT-25" value="&lt;b&gt;&lt;font color=&quot;#f90101&quot;&gt;比较重要特点&lt;/font&gt;&lt;/b&gt;" style="whiteSpace=wrap;html=1;rounded=1;arcSize=50;align=center;verticalAlign=middle;strokeWidth=1;autosize=1;spacing=4;treeFolding=1;treeMoving=1;newEdgeStyle={&quot;edgeStyle&quot;:&quot;entityRelationEdgeStyle&quot;,&quot;startArrow&quot;:&quot;none&quot;,&quot;endArrow&quot;:&quot;none&quot;,&quot;segment&quot;:10,&quot;curved&quot;:1,&quot;sourcePerimeterSpacing&quot;:0,&quot;targetPerimeterSpacing&quot;:0};" vertex="1" collapsed="1" parent="ymRMPZuHfA3HGeZkTAhT-1">
          <mxGeometry x="795" y="80" width="95" height="30" as="geometry" />
        </mxCell>
        <mxCell id="ymRMPZuHfA3HGeZkTAhT-26" value="" style="edgeStyle=entityRelationEdgeStyle;startArrow=none;endArrow=none;segment=10;curved=1;sourcePerimeterSpacing=0;targetPerimeterSpacing=0;rounded=0;" edge="1" visible="0" target="ymRMPZuHfA3HGeZkTAhT-27" source="ymRMPZuHfA3HGeZkTAhT-25" parent="ymRMPZuHfA3HGeZkTAhT-1">
          <mxGeometry relative="1" as="geometry">
            <mxPoint x="760" y="95" as="sourcePoint" />
          </mxGeometry>
        </mxCell>
        <mxCell id="ymRMPZuHfA3HGeZkTAhT-27" value="&lt;b style=&quot;&quot;&gt;不属于对象，属于整个类&lt;/b&gt;" style="whiteSpace=wrap;html=1;rounded=1;arcSize=50;align=center;verticalAlign=middle;strokeWidth=1;autosize=1;spacing=4;treeFolding=1;treeMoving=1;newEdgeStyle={&quot;edgeStyle&quot;:&quot;entityRelationEdgeStyle&quot;,&quot;startArrow&quot;:&quot;none&quot;,&quot;endArrow&quot;:&quot;none&quot;,&quot;segment&quot;:10,&quot;curved&quot;:1,&quot;sourcePerimeterSpacing&quot;:0,&quot;targetPerimeterSpacing&quot;:0};strokeColor=#000000;" vertex="1" visible="0" parent="ymRMPZuHfA3HGeZkTAhT-1">
          <mxGeometry x="931" y="40" width="180" height="30" as="geometry" />
        </mxCell>
        <mxCell id="ymRMPZuHfA3HGeZkTAhT-28" value="" style="edgeStyle=entityRelationEdgeStyle;startArrow=none;endArrow=none;segment=10;curved=1;sourcePerimeterSpacing=0;targetPerimeterSpacing=0;rounded=0;" edge="1" visible="0" target="ymRMPZuHfA3HGeZkTAhT-29" source="ymRMPZuHfA3HGeZkTAhT-25" parent="ymRMPZuHfA3HGeZkTAhT-1">
          <mxGeometry relative="1" as="geometry">
            <mxPoint x="760" y="95" as="sourcePoint" />
          </mxGeometry>
        </mxCell>
        <mxCell id="ymRMPZuHfA3HGeZkTAhT-29" value="随着类的加载而加载，优先于对象存在" style="whiteSpace=wrap;html=1;rounded=1;arcSize=50;align=center;verticalAlign=middle;strokeWidth=1;autosize=1;spacing=4;treeFolding=1;treeMoving=1;newEdgeStyle={&quot;edgeStyle&quot;:&quot;entityRelationEdgeStyle&quot;,&quot;startArrow&quot;:&quot;none&quot;,&quot;endArrow&quot;:&quot;none&quot;,&quot;segment&quot;:10,&quot;curved&quot;:1,&quot;sourcePerimeterSpacing&quot;:0,&quot;targetPerimeterSpacing&quot;:0};" vertex="1" visible="0" parent="ymRMPZuHfA3HGeZkTAhT-1">
          <mxGeometry x="930" y="80" width="250" height="30" as="geometry" />
        </mxCell>
        <mxCell id="ymRMPZuHfA3HGeZkTAhT-30" value="" style="edgeStyle=entityRelationEdgeStyle;startArrow=none;endArrow=none;segment=10;curved=1;sourcePerimeterSpacing=0;targetPerimeterSpacing=0;rounded=0;" edge="1" visible="0" target="ymRMPZuHfA3HGeZkTAhT-31" source="ymRMPZuHfA3HGeZkTAhT-25" parent="ymRMPZuHfA3HGeZkTAhT-1">
          <mxGeometry relative="1" as="geometry">
            <mxPoint x="760" y="95" as="sourcePoint" />
          </mxGeometry>
        </mxCell>
        <mxCell id="ymRMPZuHfA3HGeZkTAhT-31" value="&lt;b&gt;直接通过类名调用即可&lt;/b&gt;" style="whiteSpace=wrap;html=1;rounded=1;arcSize=50;align=center;verticalAlign=middle;strokeWidth=1;autosize=1;spacing=4;treeFolding=1;treeMoving=1;newEdgeStyle={&quot;edgeStyle&quot;:&quot;entityRelationEdgeStyle&quot;,&quot;startArrow&quot;:&quot;none&quot;,&quot;endArrow&quot;:&quot;none&quot;,&quot;segment&quot;:10,&quot;curved&quot;:1,&quot;sourcePerimeterSpacing&quot;:0,&quot;targetPerimeterSpacing&quot;:0};" vertex="1" visible="0" parent="ymRMPZuHfA3HGeZkTAhT-1">
          <mxGeometry x="930" y="120" width="179" height="30" as="geometry" />
        </mxCell>
        <mxCell id="ymRMPZuHfA3HGeZkTAhT-32" value="" style="edgeStyle=entityRelationEdgeStyle;startArrow=none;endArrow=none;segment=10;curved=1;sourcePerimeterSpacing=0;targetPerimeterSpacing=0;rounded=0;" edge="1" visible="0" target="ymRMPZuHfA3HGeZkTAhT-33" source="ymRMPZuHfA3HGeZkTAhT-25" parent="ymRMPZuHfA3HGeZkTAhT-1">
          <mxGeometry relative="1" as="geometry">
            <mxPoint x="760" y="95" as="sourcePoint" />
          </mxGeometry>
        </mxCell>
        <mxCell id="ymRMPZuHfA3HGeZkTAhT-33" value="&lt;b style=&quot;&quot;&gt;静态变量是放在堆中的，静态区中变量也是程序中共享的&lt;/b&gt;" style="whiteSpace=wrap;html=1;rounded=1;arcSize=50;align=center;verticalAlign=middle;strokeWidth=1;autosize=1;spacing=4;treeFolding=1;treeMoving=1;newEdgeStyle={&quot;edgeStyle&quot;:&quot;entityRelationEdgeStyle&quot;,&quot;startArrow&quot;:&quot;none&quot;,&quot;endArrow&quot;:&quot;none&quot;,&quot;segment&quot;:10,&quot;curved&quot;:1,&quot;sourcePerimeterSpacing&quot;:0,&quot;targetPerimeterSpacing&quot;:0};" vertex="1" visible="0" parent="ymRMPZuHfA3HGeZkTAhT-1">
          <mxGeometry x="930" y="160" width="340" height="30" as="geometry" />
        </mxCell>
        <mxCell id="ymRMPZuHfA3HGeZkTAhT-34" value="" style="edgeStyle=entityRelationEdgeStyle;startArrow=none;endArrow=none;segment=10;curved=1;sourcePerimeterSpacing=0;targetPerimeterSpacing=0;rounded=0;" edge="1" target="ymRMPZuHfA3HGeZkTAhT-35" source="ymRMPZuHfA3HGeZkTAhT-7" parent="ymRMPZuHfA3HGeZkTAhT-1">
          <mxGeometry relative="1" as="geometry">
            <mxPoint x="368" y="155" as="sourcePoint" />
          </mxGeometry>
        </mxCell>
        <mxCell id="ymRMPZuHfA3HGeZkTAhT-35" value="3、静态方法（被static修饰的就是成员方法），多用于测试类和工具类中" style="whiteSpace=wrap;html=1;rounded=1;arcSize=50;align=center;verticalAlign=middle;strokeWidth=1;autosize=1;spacing=4;treeFolding=1;treeMoving=1;newEdgeStyle={&quot;edgeStyle&quot;:&quot;entityRelationEdgeStyle&quot;,&quot;startArrow&quot;:&quot;none&quot;,&quot;endArrow&quot;:&quot;none&quot;,&quot;segment&quot;:10,&quot;curved&quot;:1,&quot;sourcePerimeterSpacing&quot;:0,&quot;targetPerimeterSpacing&quot;:0};" vertex="1" parent="ymRMPZuHfA3HGeZkTAhT-1">
          <mxGeometry x="390" y="140" width="430" height="30" as="geometry" />
        </mxCell>
        <mxCell id="ymRMPZuHfA3HGeZkTAhT-36" value="" style="edgeStyle=entityRelationEdgeStyle;startArrow=none;endArrow=none;segment=10;curved=1;sourcePerimeterSpacing=0;targetPerimeterSpacing=0;rounded=0;" edge="1" target="ymRMPZuHfA3HGeZkTAhT-37" source="ymRMPZuHfA3HGeZkTAhT-35" parent="ymRMPZuHfA3HGeZkTAhT-1">
          <mxGeometry relative="1" as="geometry">
            <mxPoint x="344" y="155" as="sourcePoint" />
          </mxGeometry>
        </mxCell>
        <mxCell id="ymRMPZuHfA3HGeZkTAhT-37" value="通过类名调用" style="whiteSpace=wrap;html=1;rounded=1;arcSize=50;align=center;verticalAlign=middle;strokeWidth=1;autosize=1;spacing=4;treeFolding=1;treeMoving=1;newEdgeStyle={&quot;edgeStyle&quot;:&quot;entityRelationEdgeStyle&quot;,&quot;startArrow&quot;:&quot;none&quot;,&quot;endArrow&quot;:&quot;none&quot;,&quot;segment&quot;:10,&quot;curved&quot;:1,&quot;sourcePerimeterSpacing&quot;:0,&quot;targetPerimeterSpacing&quot;:0};" vertex="1" parent="ymRMPZuHfA3HGeZkTAhT-1">
          <mxGeometry x="880" y="140" width="120" height="30" as="geometry" />
        </mxCell>
        <mxCell id="ymRMPZuHfA3HGeZkTAhT-40" value="" style="edgeStyle=entityRelationEdgeStyle;startArrow=none;endArrow=none;segment=10;curved=1;sourcePerimeterSpacing=0;targetPerimeterSpacing=0;rounded=0;" edge="1" target="ymRMPZuHfA3HGeZkTAhT-41" source="ymRMPZuHfA3HGeZkTAhT-35" parent="ymRMPZuHfA3HGeZkTAhT-1">
          <mxGeometry relative="1" as="geometry">
            <mxPoint x="820" y="155" as="sourcePoint" />
          </mxGeometry>
        </mxCell>
        <mxCell id="ymRMPZuHfA3HGeZkTAhT-41" value="3、静态方法（被static修饰的就是成员方法），多用于测试类和工具类中" style="whiteSpace=wrap;html=1;rounded=1;arcSize=50;align=center;verticalAlign=middle;strokeWidth=1;autosize=1;spacing=4;treeFolding=1;treeMoving=1;newEdgeStyle={&quot;edgeStyle&quot;:&quot;entityRelationEdgeStyle&quot;,&quot;startArrow&quot;:&quot;none&quot;,&quot;endArrow&quot;:&quot;none&quot;,&quot;segment&quot;:10,&quot;curved&quot;:1,&quot;sourcePerimeterSpacing&quot;:0,&quot;targetPerimeterSpacing&quot;:0};" vertex="1" parent="ymRMPZuHfA3HGeZkTAhT-1">
          <mxGeometry x="860" y="220" width="430" height="30" as="geometry" />
        </mxCell>
        <mxCell id="ymRMPZuHfA3HGeZkTAhT-39" value="工具类中的方法大多为静态的，因为他是固定的，比如math库中的多个数学处理的函数" style="whiteSpace=wrap;html=1;rounded=1;arcSize=50;align=center;verticalAlign=middle;strokeWidth=1;autosize=1;spacing=4;treeFolding=1;treeMoving=1;newEdgeStyle={&quot;edgeStyle&quot;:&quot;entityRelationEdgeStyle&quot;,&quot;startArrow&quot;:&quot;none&quot;,&quot;endArrow&quot;:&quot;none&quot;,&quot;segment&quot;:10,&quot;curved&quot;:1,&quot;sourcePerimeterSpacing&quot;:0,&quot;targetPerimeterSpacing&quot;:0};" vertex="1" parent="1">
          <mxGeometry x="880" y="180" width="310" height="30" as="geometry" />
        </mxCell>
        <mxCell id="ymRMPZuHfA3HGeZkTAhT-38" value="" style="edgeStyle=entityRelationEdgeStyle;startArrow=none;endArrow=none;segment=10;curved=1;sourcePerimeterSpacing=0;targetPerimeterSpacing=0;rounded=0;" edge="1" target="ymRMPZuHfA3HGeZkTAhT-39" source="ymRMPZuHfA3HGeZkTAhT-35" parent="1">
          <mxGeometry relative="1" as="geometry">
            <mxPoint x="820" y="155" as="sourcePoint" />
          </mxGeometry>
        </mxCell>
      </root>
    </mxGraphModel>
  </diagram>
</mxfile>
